<svg id="Board" data-name="board color" xmlns="http://www.w3.org/2000/svg" viewBox="0 0 830 290">
  <path class="cls-1" d="m186.51,218.74v-42c0-3.26,2.65-5.9,5.91-5.91h-11.95c3.26,0,5.9,2.65,5.91,5.91v42c0,3.26-2.65,5.9-5.91,5.91h11.95c-3.26,0-5.9-2.65-5.91-5.91Z"/>
  <path class="cls-1" d="m213.45,164.85c0,3.26-2.65,5.91-5.91,5.91h0,11.82c-3.26,0-5.9-2.63-5.91-5.89,0,0,0-.01,0-.02Z"/>
  <path class="cls-1" d="m348.1,218.92c0,3.26-2.64,5.9-5.9,5.9h11.81c-3.26,0-5.9-2.64-5.91-5.9Z"/>
  <path class="cls-1" d="m823.75,0H6.26C2.8,0,0,2.8,0,6.26v277.49c0,3.45,2.8,6.25,6.25,6.25h817.5c3.45,0,6.25-2.8,6.25-6.25V6.26c0-3.45-2.79-6.25-6.24-6.26,0,0,0,0-.01,0Zm-165.28,14.74c.01-3.26,2.65-5.89,5.91-5.89h42c3.26,0,5.91,2.65,5.91,5.91v42.03c0,3.26-2.65,5.91-5.91,5.91h-42c-3.26,0-5.91-2.65-5.91-5.91V14.74Zm-269.85,0c.02-3.25,2.66-5.88,5.91-5.89h42.05c3.26,0,5.9,2.65,5.91,5.91,0-3.26,2.65-5.91,5.91-5.91h42.05c3.26,0,5.9,2.65,5.9,5.91,0-3.26,2.65-5.9,5.91-5.91h42.05c3.26,0,5.91,2.65,5.91,5.91,0-3.25,2.63-5.89,5.88-5.91h42.05c3.27-.02,5.93,2.62,5.95,5.89h0c.01-3.25,2.65-5.88,5.9-5.89h42.1c3.26,0,5.9,2.65,5.9,5.91v42.03c0,3.26-2.64,5.9-5.9,5.91h-42.1c-3.26,0-5.9-2.65-5.9-5.91,0,3.26-2.65,5.9-5.91,5.91h-42.09c-3.26,0-5.9-2.65-5.91-5.91,0,3.26-2.65,5.91-5.91,5.91h-42.02c-3.26,0-5.9-2.65-5.91-5.91,0,3.26-2.64,5.9-5.9,5.91h-42.05c-3.26,0-5.91-2.65-5.91-5.91h0c0,3.26-2.65,5.9-5.91,5.91h-42.05c-3.26,0-5.9-2.65-5.91-5.91V14.74Zm202.48,107.91v.2c0-3.26,2.65-5.91,5.91-5.91h42.05c3.26,0,5.9,2.63,5.91,5.89v42.02c0,3.26-2.64,5.9-5.9,5.9,0,0,0,0,0,0h-42.07c-3.25-.01-5.88-2.65-5.89-5.9v-.17c0,3.26-2.64,5.9-5.9,5.91h-42.1c-3.26,0-5.91-2.65-5.91-5.91v-42c0-3.26,2.65-5.91,5.91-5.91h-13.9c-3.26,0-5.9-2.63-5.91-5.89v-.02c0,3.26-2.65,5.91-5.91,5.91h-42c-3.26,0-5.91-2.65-5.91-5.91h0c0,3.26-2.63,5.9-5.89,5.91,0,0-.01,0-.02,0h-42.1c-3.26,0-5.91-2.65-5.91-5.91h0v-42c0-3.26,2.65-5.9,5.91-5.9h42.05c3.26,0,5.9,2.63,5.91,5.89h0c0-3.25,2.65-5.89,5.91-5.89h42c3.26,0,5.9,2.64,5.91,5.9-.06-3.26,2.53-5.95,5.79-6.01.06,0,.11,0,.17,0h42c3.26,0,5.9,2.64,5.9,5.9h0c0-3.26,2.66-5.91,5.92-5.9.03,0,.05,0,.08,0h42c3.26,0,5.9,2.63,5.91,5.89h0v42.11c0,3.26-2.63,5.9-5.89,5.91,0,0-.01,0-.02,0h-39.92c3.26,0,5.91,2.63,5.92,5.89ZM10.29,68.65c0-3.26,2.65-5.9,5.91-5.91-3.26,0-5.9-2.65-5.91-5.91V14.83c-.03-3.27,2.59-5.95,5.86-5.98.01,0,.02,0,.03,0h42.05c3.24.02,5.86,2.65,5.87,5.89v42.05c0,3.26-2.65,5.91-5.91,5.91h12.77c-3.24-.03-5.86-2.67-5.86-5.91V14.79c-.02-3.26,2.6-5.91,5.86-5.94h42.05c3.26,0,5.9,2.65,5.91,5.91,0-3.26,2.64-5.9,5.9-5.91h42.05c3.26,0,5.91,2.65,5.91,5.91h0c0-3.26,2.65-5.9,5.91-5.91h42c3.26,0,5.9,2.65,5.91,5.91,0-3.27,2.66-5.92,5.93-5.91.01,0,.02,0,.03,0h42c3.26,0,5.9,2.65,5.91,5.91,0-3.26,2.65-5.91,5.91-5.91.02,0,.03,0,.05,0h42c3.26,0,5.91,2.65,5.91,5.91h0c0-3.27,2.66-5.92,5.93-5.91,0,0,.01,0,.02,0h42.05c3.26,0,5.9,2.65,5.91,5.91v42.03c0,3.26-2.65,5.9-5.91,5.91h-42.05c-3.26,0-5.9-2.65-5.91-5.91,0,3.26-2.65,5.91-5.91,5.91h-42c-3.26,0-5.91-2.65-5.91-5.91h0c0,3.26-2.65,5.9-5.91,5.91h-42c-3.26,0-5.9-2.65-5.91-5.91,0,3.26-2.65,5.9-5.91,5.91h-42c-3.26,0-5.9-2.65-5.91-5.91,0,3.26-2.65,5.91-5.91,5.91h-42.19c-3.26,0-5.9-2.65-5.9-5.91,0,3.26-2.65,5.9-5.91,5.91h-26.91c3.26,0,5.91,2.65,5.91,5.91h0v.17c-.01-3.26,2.62-5.91,5.88-5.93h42.05c3.26,0,5.9,2.64,5.91,5.9,0-3.26,2.64-5.9,5.9-5.9,0,0,0,0,.01,0h42.05c3.26,0,5.9,2.64,5.91,5.9,0-3.26,2.64-5.9,5.9-5.9,0,0,0,0,.01,0h42c3.26,0,5.9,2.63,5.91,5.89,0,0,0,0,0,.01,0-3.26,2.65-5.9,5.91-5.9h42.05c3.26,0,5.9,2.64,5.91,5.9,0-3.26,2.65-5.9,5.91-5.9h42.05c3.26,0,5.9,2.64,5.91,5.9,0-3.26,2.64-5.9,5.9-5.9,0,0,0,0,.01,0h42c3.26,0,5.9,2.63,5.91,5.89h0v42.11c0,3.26-2.63,5.9-5.89,5.91,0,0-.01,0-.02,0h-42c-3.26,0-5.9-2.63-5.91-5.89v-.02c0,3.26-2.65,5.91-5.91,5.91h-42.01c-3.26,0-5.91-2.65-5.91-5.91h0c0,3.26-2.65,5.91-5.91,5.91h-42.05c-3.26,0-5.91-2.65-5.91-5.91h0c0,3.26-2.63,5.9-5.89,5.91,0,0-.01,0-.02,0h-42c-3.26,0-5.9-2.63-5.91-5.89,0,0,0-.01,0-.02,0,3.26-2.65,5.91-5.91,5.91h-42.09c-3.26,0-5.9-2.63-5.91-5.89,0,0,0-.01,0-.02,0,3.26-2.65,5.91-5.91,5.91h-42c-3.26.03-5.93-2.6-5.96-5.86,0-.02,0-.03,0-.05v-.17c-.01,3.24-2.64,5.87-5.88,5.89H16.18c-3.26,0-5.9-2.65-5.91-5.91l.02-42.01Zm809.29-11.51c0,3.26-2.65,5.9-5.91,5.91,3.26,0,5.9,2.65,5.91,5.91v42.05c0,3.26-2.65,5.9-5.91,5.91,3.26,0,5.91,2.65,5.91,5.91v42c0,3.26-2.65,5.91-5.91,5.91,3.26,0,5.9,2.65,5.91,5.91v42c0,3.26-2.65,5.9-5.91,5.91,3.26,0,5.9,2.65,5.91,5.91v42c0,3.26-2.65,5.9-5.91,5.91h-55.35c-3.26,0-5.91-2.65-5.91-5.91,0,3.26-2.65,5.9-5.91,5.91h-55.35c-3.26,0-5.9-2.65-5.91-5.91,0,3.26-2.65,5.9-5.91,5.91h-55.35c-3.26,0-5.9-2.65-5.91-5.91,0,3.26-2.65,5.91-5.91,5.91h-55.35c-3.26,0-5.9-2.65-5.91-5.91v-41.74c0-3.26,2.65-5.9,5.91-5.91h-12.5c3.26,0,5.91,2.65,5.91,5.91v41.88c0,3.26-2.65,5.91-5.91,5.91H219.31c-3.26,0-5.91-2.65-5.91-5.91h0v-41.88c0-3.26,2.65-5.91,5.91-5.91h26.93c-3.26,0-5.9-2.64-5.91-5.9v-.18c0,3.26-2.65,5.91-5.91,5.91h-27.32c3.26,0,5.9,2.65,5.91,5.91v42c0,3.26-2.65,5.9-5.91,5.91h-55.34c-3.26,0-5.91-2.65-5.91-5.91h0v-42c0-3.26,2.65-5.91,5.91-5.91h0-12.19c3.26,0,5.9,2.65,5.91,5.91v42c0,3.26-2.65,5.9-5.91,5.91h-55.35c-3.26,0-5.9-2.65-5.91-5.91,0,3.26-2.65,5.9-5.91,5.91H16.18c-3.26,0-5.9-2.65-5.91-5.91v-42c0-3.26,2.65-5.9,5.91-5.91-3.26,0-5.9-2.65-5.91-5.91v-42c0-3.26,2.65-5.9,5.91-5.91-3.26,0-5.91-2.65-5.91-5.91,0-.02,0-.05,0-.07v-42c0-3.26,2.65-5.91,5.91-5.91h83.35c3.26,0,5.91,2.65,5.91,5.91h0v42c0,3.26-2.65,5.91-5.91,5.91h0,12.09c-3.26,0-5.91-2.65-5.91-5.91h0v-42c0-3.26,2.65-5.91,5.91-5.91h42.05c3.26,0,5.91,2.65,5.91,5.91h0c0-3.26,2.65-5.91,5.91-5.91h42.05c3.26,0,5.91,2.65,5.91,5.91h0c0-3.26,2.63-5.9,5.89-5.91,0,0,.01,0,.02,0h42.05c3.26,0,5.9,2.64,5.9,5.9h0c0-3.25,2.65-5.9,5.91-5.9h42.05c3.26,0,5.9,2.63,5.91,5.89v.02h0c0-3.26,2.65-5.91,5.91-5.91h42.01c3.26-.05,5.95,2.56,6,5.82,0,.03,0,.06,0,.09h0c0-3.26,2.63-5.9,5.89-5.91,0,0,.01,0,.02,0h42.05c3.26,0,5.9,2.64,5.9,5.9h0c0-3.25,2.65-5.9,5.91-5.9h42c3.26,0,5.9,2.63,5.91,5.89v.02h0c0-3.26,2.65-5.91,5.91-5.91h42.05c3.26,0,5.91,2.65,5.91,5.91v42c0,3.26-2.65,5.9-5.91,5.9h-42.05c-3.26,0-5.9-2.64-5.91-5.9h0c0,3.26-2.63,5.9-5.89,5.91,0,0-.01,0-.02,0h-42c-3.26,0-5.91-2.65-5.91-5.91h0c0,3.26-2.64,5.9-5.9,5.9h-42.1c-3.24-.02-5.86-2.66-5.86-5.9h0c0,3.26-2.65,5.91-5.91,5.91h-42.09c-3.26,0-5.91-2.65-5.91-5.91h0c0,3.26-2.64,5.9-5.9,5.9,0,0,0,0-.01,0h-42.06c-3.26,0-5.9-2.64-5.91-5.9h0c0,3.26-2.63,5.9-5.89,5.91,0,0,0,0-.01,0h-26.94c3.26,0,5.91,2.65,5.91,5.91h0v.18c0-3.26,2.65-5.91,5.91-5.91h42.05c3.26,0,5.91,2.65,5.91,5.91h0c0-3.26,2.63-5.9,5.89-5.91,0,0,.01,0,.02,0h42.05c3.26,0,5.9,2.65,5.89,5.91h0c0-3.26,2.65-5.91,5.91-5.91h42.09c3.26,0,5.9,2.63,5.91,5.89v.02c0-3.26,2.65-5.91,5.91-5.91h42c3.26,0,5.91,2.65,5.91,5.91h0c0-3.26,2.63-5.9,5.89-5.91,0,0,.01,0,.02,0h42c3.26,0,5.9,2.64,5.9,5.9h0v42.01c0,3.26-2.64,5.9-5.9,5.9h12.38c-3.26,0-5.9-2.64-5.91-5.9v-42c0-3.26,2.65-5.91,5.91-5.91h42c3.26,0,5.9,2.63,5.91,5.89v.02c0-3.26,2.65-5.91,5.91-5.91h42c3.26,0,5.91,2.65,5.91,5.91v42c.05,3.24-2.51,5.91-5.75,6h0c3.26,0,5.91,2.65,5.91,5.91v-.17c0-3.26,2.65-5.9,5.91-5.91h.23c-3.26,0-5.9-2.65-5.91-5.91v-42c0-3.26,2.65-5.9,5.91-5.91h26.95c-3.26,0-5.9-2.63-5.91-5.89v-42.12c0-3.26,2.63-5.9,5.89-5.91,0,0,.01,0,.02,0h42c3.26,0,5.91,2.65,5.91,5.91v42c0,3.26-2.65,5.91-5.91,5.91h12.2c-3.26,0-5.9-2.63-5.91-5.89v-42.02c0-3.26,2.63-5.9,5.89-5.91,0,0,.01,0,.02,0h40.19c-3.26,0-5.91-2.65-5.91-5.91v-42c0-3.26,2.65-5.91,5.91-5.91h-10.73c2.64.64,4.5,3.01,4.51,5.73v42c0,3.26-2.65,5.91-5.91,5.91h-42c-3.26.03-5.93-2.6-5.96-5.86,0-.02,0-.03,0-.05,0,3.26-2.65,5.91-5.91,5.91h-42c-3.26,0-5.91-2.65-5.91-5.91v-42c0-3.26,2.65-5.9,5.91-5.9h42c3.26,0,5.9,2.64,5.91,5.9,0-3.26,2.65-5.9,5.91-5.9h26c-2.64-.65-4.5-3.02-4.51-5.74V15.21c0-3.26,2.65-5.9,5.91-5.91h94.92c3.26,0,5.9,2.65,5.91,5.91l.04,41.93Z"/>
  <path class="cls-1" d="m132.58,219.6c-.43,2.9-2.91,5.05-5.84,5.05h11.68c-2.93,0-5.41-2.15-5.84-5.05Z"/>
  <path class="cls-1" d="m159.58,164.85c0,3.26-2.65,5.91-5.91,5.91h0,11.82c-3.26,0-5.91-2.65-5.91-5.91Z"/>
  <path class="cls-1" d="m132.58,175.85c.42-2.9,2.91-5.06,5.84-5.06h-11.68c2.93,0,5.42,2.16,5.84,5.06Z"/>
  <path class="cls-1" d="m78.31,230.56c0-3.26,2.65-5.9,5.91-5.91h-11.82c3.26,0,5.9,2.65,5.91,5.91Z"/>
  <path class="cls-1" d="m294.25,218.92c0,3.26-2.65,5.9-5.91,5.9h11.82c-3.26,0-5.9-2.63-5.91-5.89h0Z"/>
  <path class="cls-1" d="m752.41,230.56c0-3.26,2.65-5.91,5.91-5.91h-11.82c3.26,0,5.9,2.65,5.91,5.91Z"/>
  <path class="cls-1" d="m685.24,230.56c0-3.26,2.65-5.9,5.91-5.91h-11.82c3.26,0,5.9,2.65,5.91,5.91Z"/>
  <path class="cls-1" d="m672.1,219.4c-.34,2.99-2.86,5.25-5.87,5.25h11.77c-3.02.01-5.56-2.25-5.9-5.25Z"/>
  <path class="cls-1" d="m577.15,110.85c0,3.26-2.63,5.9-5.89,5.91,0,0,0,0-.01,0h11.85c-3.26.02-5.93-2.61-5.95-5.87,0-.01,0-.03,0-.04Z"/>
  <path class="cls-1" d="m401.98,218.92c.02,3.26-2.61,5.91-5.87,5.93,0,0,0,0-.01,0h11.82c-3.26.02-5.92-2.62-5.94-5.88,0-.02,0-.03,0-.05Z"/>
  <path class="cls-1" d="m672.1,176.03c.34-2.99,2.86-5.25,5.87-5.25h-11.71c3,.02,5.51,2.27,5.84,5.25Z"/>
  <path class="cls-1" d="m455.85,218.92c0,3.26-2.65,5.9-5.91,5.9h11.82c-3.26,0-5.9-2.63-5.91-5.89h0Z"/>
  <path class="cls-1" d="m564.15,218.92c0,3.26-2.64,5.9-5.9,5.9,0,0,0,0,0,0h11.86c-3.26.02-5.93-2.61-5.95-5.87,0-.01,0-.02,0-.03Z"/>
</svg>